PathFileType	4	(X/Y/Z)	C:/Users/opensim2020/Desktop/walking_exp_matlab/subject03_walking06_straight_03.trc	
DataRate	CameraRate	NumFrames	NumMarkers	Units	OrigDataRate	OrigDataStartFrame	OrigNumFrames	
100.00	100.00	7	44	mm	100.00	2135	280	
Frame#	Time	LFHD			RFHD			LBHD			RBHD			C7			T10			CLAV			STRN			RBAK			LSHO			LUPA			LELB			LFRM			LWRA			LWRB			LFIN			RSHO			RUPA			RELB			RFRM			RWRA			RWRB			RFIN			LASI			RASI			LPSI			RPSI			LTHI			LKNE			LTIB			LANK			LHEE			LTOE			RTHI			RKNE			RTIB			RANK			RHEE			RTOE			*39			*40			*41			*42			*43			
		X1	Y1	Z1	X2	Y2	Z2	X3	Y3	Z3	X4	Y4	Z4	X5	Y5	Z5	X6	Y6	Z6	X7	Y7	Z7	X8	Y8	Z8	X9	Y9	Z9	X10	Y10	Z10	X11	Y11	Z11	X12	Y12	Z12	X13	Y13	Z13	X14	Y14	Z14	X15	Y15	Z15	X16	Y16	Z16	X17	Y17	Z17	X18	Y18	Z18	X19	Y19	Z19	X20	Y20	Z20	X21	Y21	Z21	X22	Y22	Z22	X23	Y23	Z23	X24	Y24	Z24	X25	Y25	Z25	X26	Y26	Z26	X27	Y27	Z27	X28	Y28	Z28	X29	Y29	Z29	X30	Y30	Z30	X31	Y31	Z31	X32	Y32	Z32	X33	Y33	Z33	X34	Y34	Z34	X35	Y35	Z35	X36	Y36	Z36	X37	Y37	Z37	X38	Y38	Z38	X39	Y39	Z39	X40	Y40	Z40	X41	Y41	Z41	X42	Y42	Z42	X43	Y43	Z43	X44	Y44	Z44	

141	1.400	1369.99561	99.24202	1630.93115	1502.94189	93.57602	1638.28760	1371.43884	-22.25372	1571.80774	1502.52808	-23.41908	1579.11072	1428.64551	-41.09097	1421.37805	1427.91162	-71.05421	1109.14612	1436.49866	80.91944	1346.24158	1435.49646	127.14095	1182.08508	1522.94824	-95.30025	1246.25037	1278.35034	47.51535	1379.42163	1208.16736	50.04726	1180.95544	1197.39954	59.55375	1057.86841	1202.74268	89.31069	930.84821	1236.28516	106.16289	813.33716	1182.17529	92.05589	818.15393	1196.06787	105.95181	734.59106	1593.88171	29.70345	1369.99072	1663.78723	36.85863	1146.67249	1676.14172	56.68341	1035.27637	1676.95435	82.21120	900.44763	1640.66101	120.01399	808.00836	1684.28857	87.69877	800.57758	1672.43237	114.18149	730.60480	1320.76758	102.35011	948.03229	1558.21680	82.88922	940.88232	1358.82703	-62.70594	974.07001	1507.59851	-73.11933	973.02429	1282.56104	56.19800	647.08698	1327.99634	68.03848	470.44858	1325.49426	30.53177	279.25998	1370.11450	26.56678	69.87913	1403.73645	-14.49051	35.52594	1401.35278	178.83849	35.17093	1601.40454	52.57994	642.13232	1585.13245	95.67014	467.30371	1581.68640	-49.98211	347.68665	1534.28662	-215.52985	212.98981	1476.65454	-262.47891	225.22067	1524.16321	-167.10803	76.92973	1417.16687	8.69685	1684.85876												 
142	1.410	1370.21436	109.08781	1631.11218	1503.16833	103.15840	1638.45349	1371.48010	-12.55869	1572.04565	1502.55652	-13.88802	1579.37280	1428.48767	-31.83287	1421.71533	1427.62195	-61.85829	1109.42725	1436.60291	90.19550	1346.50415	1435.15686	136.28882	1182.35083	1522.07080	-86.63725	1246.39636	1278.40918	57.08477	1380.05725	1208.29980	62.61871	1181.97766	1197.26489	74.56445	1059.18799	1202.87012	105.96053	932.48248	1236.45007	123.85477	815.54584	1181.96033	110.99308	820.01007	1195.26953	127.09145	737.20184	1593.93115	38.16385	1369.94250	1663.59387	43.73569	1146.47168	1676.24780	63.29816	1035.09534	1677.41235	87.69231	900.02551	1641.53735	124.68285	807.16461	1684.95972	92.38844	800.09094	1673.96692	118.61240	730.16968	1319.90076	111.20010	948.24377	1557.35217	92.99062	942.10687	1358.95923	-53.59876	974.20966	1507.76489	-63.31057	973.52563	1282.77026	63.48764	647.07910	1328.35120	73.33320	470.35980	1325.48987	33.19962	279.43704	1370.24133	26.73157	70.10682	1403.87024	-14.44668	35.70707	1401.42676	178.89943	35.12816	1601.46191	68.04638	643.55585	1584.36060	114.68066	469.55383	1581.04053	-28.82258	347.90997	1534.90881	-192.57300	210.68634	1477.55835	-240.76364	221.19002	1525.49780	-139.75330	76.74638	1417.33801	18.61575	1685.07056												 
143	1.420	1370.52649	118.90427	1631.21667	1503.44849	112.79816	1638.53906	1371.57422	-2.71760	1572.28174	1502.65942	-4.33831	1579.59094	1428.31165	-22.55974	1422.00439	1427.38159	-52.73931	1109.72180	1436.73120	99.40538	1346.73865	1434.81189	145.35782	1182.55347	1521.22412	-77.76608	1246.49719	1278.52405	66.57350	1380.75354	1207.87561	75.00161	1183.27295	1197.44763	89.51405	1060.69897	1202.78979	122.84730	934.58636	1236.07422	142.15356	818.03003	1181.77222	130.07065	822.33313	1194.92188	148.06630	740.08362	1593.90430	46.61601	1369.92322	1663.57947	50.61178	1146.40076	1676.39368	69.80315	1034.98535	1677.90259	93.20644	899.75629	1642.54956	129.54585	806.56128	1685.78796	97.03497	799.85065	1675.48999	123.23425	729.93787	1318.97009	119.84208	948.33887	1556.48755	103.08276	943.26685	1359.23071	-44.42004	974.28436	1508.06213	-53.49298	974.00604	1282.96045	71.24263	646.84692	1328.30591	78.21632	470.11765	1325.56360	35.97687	279.58524	1370.34924	27.01315	70.31908	1404.00208	-14.41498	35.86049	1401.48584	178.99622	35.08086	1601.14551	83.73082	644.80353	1583.44104	133.43202	471.78836	1580.70435	-7.83397	347.55896	1535.48645	-169.00114	207.20389	1478.62439	-218.40143	215.89359	1526.11218	-111.32186	75.80201															 
144	1.430	1370.92493	128.69263	1631.23645	1503.90894	122.43328	1638.51331	1371.79663	6.98625	1572.49768	1502.82202	5.21989	1579.75342	1428.24634	-13.33105	1422.38696	1427.20020	-43.43953	1109.82349	1436.73926	108.57832	1346.86816	1434.48657	154.41544	1182.68762	1520.52771	-69.01132	1246.68665	1278.62659	76.02087	1381.55884	1207.99036	87.22080	1184.63269	1197.42163	104.26550	1062.36499	1203.10706	139.42281	936.94196	1236.35559	159.66513	820.42749	1181.43359	149.03197	824.96045	1194.44666	169.16559	743.43463	1593.89172	55.08839	1369.94324	1663.75269	57.65008	1146.47144	1676.47778	76.02006	1034.94849	1678.47864	98.61372	899.62073	1643.44238	134.50618	806.08600	1686.62146	101.80270	799.72693	1677.01501	127.98112	729.89191	1318.14612	128.71854	948.40814	1555.63611	113.14713	944.16003	1359.59265	-35.51666	974.25983	1508.42004	-43.77613	974.36694	1283.09778	78.16350	646.66901	1328.22278	83.38612	469.92603	1325.46936	38.92103	279.75391	1370.39758	27.25538	70.54552	1404.06995	-14.41717	36.07083	1401.48767	179.05656	35.04505	1600.83374	99.11104	646.11987	1582.41333	151.83040	474.05212	1580.29102	13.53361	346.47220	1535.87769	-144.87863	202.76193	1479.66882	-195.44052	209.43211	1526.37024	-81.77664	74.41600	1415.48438	34.91957	1681.60962												 
145	1.440	1371.41858	138.60434	1631.27869	1504.34851	132.14474	1638.35938	1372.04407	16.67187	1572.70020	1503.13403	14.81798	1579.81860	1428.13013	-4.29560	1422.36877	1427.09448	-34.41239	1109.92810	1436.79431	117.70679	1346.92627	1434.01892	163.44202	1182.76538	1519.96802	-60.11430	1246.82874	1278.81714	85.36967	1382.36829	1207.50989	99.08172	1186.15759	1197.37122	118.58338	1064.17090	1203.19189	156.00229	939.43597	1236.27222	177.90262	823.15649	1181.27234	167.95505	827.80212	1193.96277	190.19649	747.08148	1593.83875	63.60416	1369.93555	1663.90430	64.41422	1146.52002	1676.90601	82.54753	1034.95239	1679.07031	104.11301	899.57751	1644.48877	139.63313	805.72668	1687.35645	106.55636	799.61530	1678.52734	132.84984	729.84558	1317.50549	137.48759	948.56677	1554.87415	123.15503	944.91071	1359.95874	-26.48895	974.04523	1508.87231	-34.11576	974.60175	1283.05554	85.10618	646.25677	1328.19971	88.58633	469.59058	1325.47974	41.96046	279.87292	1370.43396	27.56013	70.83587	1404.14319	-14.28370	36.36613	1401.51746	179.13365	34.97602	1600.61072	114.20261	647.44202	1581.31494	169.87415	476.32281	1579.98340	34.94225	344.93402	1536.30310	-120.08671	197.29390	1480.68982	-171.75925	201.83093	1526.10120	-51.21275	72.35470	1418.72607	48.97676	1685.83984												 
146	1.450	1371.94775	148.44872	1631.21167	1504.91284	141.84821	1638.10486	1372.33130	26.39902	1572.92822	1503.38892	24.38365	1579.84546	1428.06238	4.83541	1422.47388	1427.05127	-25.25794	1109.97144	1436.85437	126.86942	1346.93054	1433.68677	172.47510	1182.79553	1519.59412	-51.31676	1246.96790	1278.97815	94.65554	1383.04968	1207.19397	110.67640	1187.48413	1197.28467	132.58730	1066.06201	1203.03784	172.51619	942.07245	1236.28882	195.85867	826.01489	1181.20947	186.76765	830.77728	1193.66675	210.95236	750.72369	1593.78223	72.20499	1369.89429	1664.18042	71.16991	1146.57312	1677.30127	88.86340	1034.95105	1679.83484	109.70130	899.64722	1645.49744	144.88567	805.39771	1688.32776	111.72207	799.59039	1680.00439	137.83337	729.80151	1316.86951	146.14749	948.34052	1554.19482	133.11859	945.40308	1360.33679	-17.48290	973.90131	1509.24976	-24.45613	974.77454	1282.87903	91.36299	646.10547	1328.03406	94.01048	469.32654	1325.47485	45.05369	279.97607	1370.49097	27.85608	71.11273	1404.21375	-14.23638	36.78196	1401.51636	179.27393	34.93399	1600.36865	129.80211	648.31244	1580.13660	187.52492	478.61810	1579.57239	56.43524	343.09583	1536.50122	-94.52177	190.97836	1481.52588	-147.25296	193.12875	1525.91431	-19.50368	70.27677	1418.74536	58.69163	1686.65894												 
147	1.460	1372.54736	158.27357	1631.09351	1505.48694	151.61865	1637.73450	1372.63464	36.12798	1573.14539	1503.79395	33.99540	1579.79248	1428.02332	13.95777	1422.31055	1427.01965	-16.08536	1109.92798	1436.96472	136.03952	1346.86292	1433.31104	181.54510	1182.71350	1519.30164	-42.46557	1247.03394	1279.18884	103.93619	1383.64355	1206.85925	122.14117	1188.80322	1196.97974	146.57227	1067.83179	1203.11462	188.59454	944.61823	1236.30994	214.17462	829.12231	1181.18005	205.44977	833.85651	1193.48486	231.49365	754.45959	1593.73010	80.82990	1369.72668	1664.42065	78.09515	1146.52588	1677.81555	95.09929	1034.85291	1680.54956	115.53101	899.40625	1646.62109	150.41161	805.05371	1689.17407	116.85033	799.45422	1681.22278	142.81139	729.52051	1316.18262	154.79877	947.91626	1553.66614	142.96097	945.62604	1360.89331	-8.86288	973.84503	1509.63196	-14.90987	974.67908	1283.03088	98.12151	645.68604	1328.13440	98.98718	468.86798	1325.51563	47.95788	280.11108	1370.60107	28.11841	71.37189	1404.46399	-14.08312	37.23705	1401.47046	179.41586	34.87976	1600.45496	142.87592	650.03125	1578.98083	204.61678	480.89557	1579.12524	77.76620	341.03354	1536.55103	-68.37019	183.88954	1482.17322	-121.74399	183.54286	1525.74072	12.24080	67.83276															 
